<svg xmlns="http://www.w3.org/2000/svg" width="296" height="296" viewBox="0 0 296 296"><g id="Layer_2" data-name="Layer 2"><g id="clock"><path d="M148,0A148,148,0,1,0,296,148,148,148,0,0,0,148,0Zm84.2,92.6,25.7-14.8A5.9,5.9,0,0,1,266,80a6,6,0,0,1-2.2,8.1l-25.7,14.8a5.9,5.9,0,0,1-5.9-10.3ZM142.1,17.8a5.9,5.9,0,1,1,11.8,0V47.4a5.9,5.9,0,1,1-11.8,0ZM79.9,30.1A5.9,5.9,0,0,1,88,32.2l14.8,25.7a5.9,5.9,0,1,1-10.2,5.9L77.8,38.2A5.9,5.9,0,0,1,79.9,30.1ZM11.8,148a5.9,5.9,0,0,1,6-5.9H47.4a5.9,5.9,0,0,1,0,11.8H17.8A5.9,5.9,0,0,1,11.8,148Zm52,55.4L38.2,218.2a5.9,5.9,0,1,1-6-10.2l25.7-14.8a5.9,5.9,0,0,1,8.1,2.1A6,6,0,0,1,63.8,203.4ZM66,100.6a5.9,5.9,0,0,1-8.1,2.2L32.3,88a5.9,5.9,0,0,1-2.2-8.1,6,6,0,0,1,8.1-2.2L63.8,92.5A6,6,0,0,1,66,100.6Zm36.8,137.5L88,263.7a5.9,5.9,0,0,1-8.1,2.2,6,6,0,0,1-2.2-8.1l14.8-25.6a5.9,5.9,0,0,1,10.3,5.9Zm51.1,40.1a6,6,0,1,1-11.9,0V248.6a5.9,5.9,0,0,1,5.9-5.9,6,6,0,0,1,5.9,5.9ZM216,265.9a5.9,5.9,0,0,1-8.1-2.1l-14.7-25.7a5.8,5.8,0,0,1,2.1-8,5.9,5.9,0,0,1,8.1,2.1l14.8,25.7A5.8,5.8,0,0,1,216,265.9Zm2.3-227.7L203.5,63.8a5.9,5.9,0,0,1-8.1,2.2,6,6,0,0,1-2.2-8.1l14.9-25.6a5.9,5.9,0,0,1,8.1-2.2A6,6,0,0,1,218.3,38.2Zm47.6,177.9a5.9,5.9,0,0,1-8.1,2.2l-25.6-14.8a5.9,5.9,0,0,1-2.2-8.1,6,6,0,0,1,8.1-2.2L263.7,208A5.9,5.9,0,0,1,265.9,216.1ZM278.2,154H248.6a6,6,0,0,1,0-11.9h29.6a6,6,0,1,1,0,11.9Z" fill="#fff"/></g></g></svg>